<svg xmlns="http://www.w3.org/2000/svg" version="1.2" viewBox="0 0 1564 311" width="183pt" height="50pt">
	<title>ICICI_Bank_Logo-svg</title>
	<style>
		.s0 { fill: #004a7f } 
		.s1 { fill: #f06321 } 
		.s2 { fill: #ae282e } 
		.s3 { fill: #ffffff } 
	</style>
	<g id="layer1">
		<g id="g651">
			<path id="path150" class="s0" d="m326.7 153.1h52.2l-41.4 154.4h-52.8z"/>
			<path id="path152" class="s0" d="m597 153.1h52.8l-41.4 154.4h-52.9z"/>
			<path id="path154" class="s0" d="m867.3 153.1h52.8l-40.9 154.4h-52.3z"/>
			<path id="path156" class="s0" d="m484.1 184.2c-25.4 0-45.1 17.1-53.4 47.7-7.7 29.5 2.6 45 28 45 18.7 0 32.1-8.8 39.9-26.4h52.8c-14 39.9-47.6 57.5-104.6 57.5-56.4 0-80.8-28-68.9-74.6 14-50.3 54.4-79.8 114.5-79.8 51.8 0 74 17.6 66.8 52.3h-52.9c1.6-14.5-5.7-21.7-22.2-21.7z"/>
			<path id="path158" class="s0" d="m754.9 184.2c-25.4 0-45 17.1-52.8 47.7-8.3 29.5 2.1 45 27.4 45 18.7 0 32.6-8.8 39.9-26.4h52.8c-14.5 39.9-48.1 57.5-104.6 57.5-56.4 0-80.8-28-68.3-74.6 13.4-50.3 54.3-79.8 113.9-79.8 51.8 0 74.6 17.6 67.3 52.3h-52.8c1.6-14.5-6.2-21.7-22.8-21.7z"/>
			<path id="path160" class="s1" d="m81.2 67.6c70.4-69.9 155.9-88.1 190-40.4 34.2 47.7 4.2 144-66.2 214-70.5 70.4-155.9 88.6-190.6 40.4-33.7-48.2-3.6-144.1 66.8-214z"/>
			<path id="path162" class="s2" d="m271.2 27.2c11.9 17.6 15.6 40.9 13 67.3-9.3 35.8-32.1 74.1-66.3 107.3-63.2 61.7-138.8 77.2-170.4 35.2-30.5-41.9-4.6-125.9 57-187 7.8-7.3 15.5-14 23.3-19.7 58.5-37.3 116.5-40.4 143.4-3.1z"/>
			<path id="path164" class="s3" d="m216.9 38.1v1.5c-0.6 8.8-5.7 19.7-15.1 29-13.9 13.5-32.6 18.7-40.4 10.9-8.8-8.3-3.6-26.4 10.4-40.9 14.5-14 33.2-18.7 40.9-10.4 2.6 2.6 4.2 5.7 4.2 9.9zm-53.9 237.8c-33.1 24.8-67.3 37.3-100.5 32.1 14 0.5 25.4-15 34.8-35.7 9.3-21.3 14.5-41 19.1-59.6 6.7-29.6 7.3-50.3 3.6-54.9-5.7-7.3-18.1-5.7-32.6 2.6-7.3 4.1-16.6 1.5-5.7-12 11.4-13.4 55.4-45.6 70.9-50.7 17.7-4.7 37.3 2 30.6 21.2-4.7 14-65.8 173.6-20.2 157z"/>
			<path id="path166" class="s0" d="m1040.2 283.1v24.9h-80.2l40.9-154.4h39.3v23.3h-11.9l-10.3 37.9h22.2v23.8h-29l-11.9 44.5zm0-68.3h9.4c25.3 0 38.8-4.2 43.5-19.2 3.6-15.6-7.8-18.7-32.6-18.7h-20.3v-23.3h39.4c18.6 0 32.6 0.5 40.9 6.2 9.8 6.8 13.5 17.1 9.3 31.1-4.6 18.7-19.1 30.6-41.9 34.7 24.3 3.1 33.6 17.7 28 38.9-3.1 12.4-10.9 23.3-21.8 30.5-16 11-32.1 13-53.9 13v-24.9c22.3 0 35.3-5.7 39.4-21.7 5.2-18.1-7.2-22.8-33.7-22.8h-5.7z"/>
			<path id="path168" fill-rule="evenodd" class="s0" d="m1185.2 199.7c7.3-1 15-2.1 23.9-2.1 27.9 0 42.9 9.4 44 27v5.2q0 5.4-1.6 10.9l-11.9 43.5c-2.1 8.3-3.6 16.5-5.2 23.8h-31.1l2.6-15c-6.2 5.7-12.9 9.8-20.7 13v-15.6q0 0 0 0c14.5-3.6 25.4-14.5 29.6-30.6l0.5-1.5h-30.1v-18.2q0 0 0 0c5.7 0 12-0.5 18.1-0.5h16.6l0.5-1.5c4.7-15.6-1.5-22.8-17.5-22.8-7.3 0-13 1-17.7 3.6v-19.2q0 0 0 0zm0 19.2c-4.1 2.1-7.7 5.7-9.3 10.9h-31c5.1-15 19.1-25.4 40.3-30.1v19.2q0 0 0 0zm0 87.1c-7.7 3.1-16.5 4.6-25.9 4.6-27.9 0-41.4-14-35.7-35.2 6.2-23.3 25.9-32.7 61.6-35.3v18.2c-16.5 1.5-25.9 5.7-29 17.6-3.1 10.3 3.1 16.1 17.1 16.1 4.2 0 8.3-0.6 11.9-1.6v15.6q0 0 0 0z"/>
			<path id="path170" class="s0" d="m1282.6 231.9c1-4.2 3.1-14.6 6.2-31.7h31.6l-3.6 19.2c13.9-14.5 30-21.8 50.2-21.8 31.1 0 45 16.6 37.8 44.6l-17.6 65.8h-31.6l15-56.5c6.2-21.7-0.5-32.6-19.1-32.6-19.2 0-37.3 14-42.5 33.7l-15 55.4h-31.6z"/>
			<path id="path172" class="s0" d="m1456.6 153.6h31l-23.8 89.7 59.6-43.1h39.9l-64.3 46.2 47.7 61.6h-43l-41.9-58-15.6 58h-31z"/>
		</g>
	</g>
</svg>