<svg xmlns="http://www.w3.org/2000/svg" version="1.2" baseProfile="tiny-ps" viewBox="0 0 1679 280" width="183pt" height="50pt">
	<title>HDFC_Bank_Logo-svg</title>
	<style>
		tspan { white-space:pre }
		.shp0 { fill: #004c8f } 
		.shp1 { fill: #ffffff } 
		.shp2 { fill: #ed232a } 
	</style>
	<g id="layer1">
		<g id="g11008">
			<path id="path1556" class="shp0" d="M0.25 0.3L1678.39 0.3L1678.39 279.77L0.25 279.77L0.25 0.3Z"/>
			<path id="path1558" class="shp0" d="M279.95 0.3L1678.39 0.3L1678.39 279.77L279.95 279.77L279.95 0.3Z"/>
			<path id="path1560" class="shp1" d="M368.89 206.15L368.89 73.92L412.42 73.92L412.42 118.55L453.21 118.55L453.21 73.92L496.82 73.92L496.82 206.15L453.21 206.15L453.21 154.85L412.42 154.85L412.42 206.15L368.89 206.15Z"/>
			<path id="path1562" fill-rule="evenodd" class="shp1" d="M582.51 206.15L523.12 206.15L523.12 73.92L583.64 73.92C597.28 73.92 609.03 76.03 618.87 80.32C628.75 84.6 636.49 91.88 642.19 101.93C647.81 112.19 650.59 124.49 650.59 139.03C650.59 148.94 649.36 157.69 646.79 165.46C644.3 173.26 641.1 179.62 637.44 184.68C633.75 189.56 629.74 193.5 625.31 196.42C620.95 199.26 615.25 201.65 608.25 203.44C601.29 205.31 592.78 206.15 582.51 206.15ZM565.7 106.78L565.7 173.29L576.68 173.22C584.76 173.22 590.88 172.1 595 169.75C599.11 167.43 602.31 163.67 604.53 158.43C606.81 153.2 607.87 146.73 607.87 139C607.87 134.26 607.34 129.76 606.35 125.51C605.26 121.22 603.79 117.81 601.96 115.1C599.95 112.36 597.67 110.54 594.86 109.31C591.06 107.62 585.11 106.78 576.99 106.78L565.7 106.78Z"/>
			<path id="path1564" class="shp1" d="M670.53 206.15L670.53 73.92L773.77 73.92L773.77 106.53L713.5 106.53L713.5 127.72L761.71 127.72L761.71 159.45L713.5 159.45L713.5 206.15L670.53 206.15"/>
			<path id="path1566" class="shp1" d="M919.57 124.49L878.46 124.49C877.69 117.92 875.3 112.71 871.32 108.99C867.31 105.34 862.28 103.54 856.1 103.54C848.39 103.54 842.14 106.53 837.32 112.43C832.46 118.41 830.04 128.07 830.04 141.35C830.04 150.63 831.13 157.59 833.13 162.33C835.21 167.22 838.13 170.73 841.75 173.08C845.48 175.44 850.01 176.53 855.6 176.53C862.28 176.53 867.63 174.84 871.53 170.98C875.54 167.36 877.86 161.94 878.64 154.71L920.48 154.71C919.57 162.93 917.92 169.82 915.52 175.44C913.24 181.03 909.16 186.58 903.64 192.16C898.05 197.82 891.37 202.18 883.66 205.2C875.96 208.26 867.07 209.7 856.87 209.7C846.81 209.7 837.42 208.26 828.95 205.31C820.37 202.28 813.12 198 807.36 192.62C801.48 187.03 796.91 180.78 793.64 173.72C788.93 163.77 786.72 152.84 786.72 140.65C786.72 130.46 788.37 120.8 791.71 111.94C795.05 103.16 799.66 95.67 805.53 89.63C811.44 83.62 817.87 79.12 825.05 76.1C834.12 72.23 844.1 70.37 855.18 70.37C864.82 70.37 873.75 71.78 882.19 74.62C890.59 77.47 897.48 81.62 902.86 87.13C908.32 92.65 912.5 98.98 915.42 106.18C917.53 111.2 918.87 117.28 919.57 124.49"/>
			<path id="path1568" fill-rule="evenodd" class="shp1" d="M1003.05 206.15L1003.05 73.92L1068.7 73.92C1085.05 73.92 1097.12 76.31 1104.85 81.02C1114.87 87.13 1119.94 96.13 1119.94 107.9C1119.94 119.29 1114.21 128.63 1102.71 135.87C1109.49 137.8 1114.87 141.35 1118.88 146.73C1122.89 152.07 1124.86 158.64 1124.86 166.62C1124.86 172.21 1123.95 177.41 1122.12 182.01C1120.29 186.58 1117.79 190.37 1114.42 193.5C1112.24 195.82 1108.93 197.93 1104.64 200.18C1100.25 202.21 1095.92 203.76 1091.74 204.74C1087.48 205.66 1080.24 206.15 1069.93 206.15L1003.05 206.15ZM1045.18 103.68L1045.18 126.98L1061.56 126.98C1068.28 126.98 1072.96 125.96 1075.7 123.75C1078.27 121.64 1079.6 118.86 1079.6 115.49C1079.6 112.86 1078.8 110.57 1077.25 108.6C1075.74 106.71 1073.63 105.27 1071.09 104.53C1069.12 103.97 1065.15 103.68 1059 103.68L1045.18 103.68ZM1045.18 150.77L1045.18 175.82L1062.94 175.82C1071.34 175.82 1077 174.84 1079.71 172.49C1082.56 170.27 1083.96 167.11 1083.96 163.1C1083.96 159.13 1082.56 156.18 1079.96 154.04C1077.14 151.82 1071.55 150.77 1062.94 150.77L1045.18 150.77Z"/>
			<path id="path1570" fill-rule="evenodd" class="shp1" d="M1137.31 206.15L1184.82 73.92L1229.02 73.92L1276.49 206.15L1233.2 206.15L1228.14 188.79L1184.82 188.79L1179.79 206.15L1137.31 206.15ZM1206.44 113.59L1192.8 161.7L1220.47 161.7L1206.44 113.59Z"/>
			<path id="path1572" class="shp1" d="M1294.78 206.15L1294.78 73.92L1335.32 73.92L1381.07 144.73L1381.07 73.92L1422.78 73.92L1422.78 206.15L1381.35 206.15L1336.59 137.1L1336.59 206.15L1294.78 206.15"/>
			<path id="path1574" class="shp1" d="M1451.79 206.15L1451.79 73.92L1493.95 73.92L1493.95 117.53L1533.3 73.92L1584.43 73.92L1535.94 123.71L1589.46 206.15L1537.35 206.15L1505.52 153.48L1493.95 164.9L1493.95 206.15L1451.79 206.15"/>
			<path id="path1576" class="shp2" d="M0.25 0.3L279.92 0.3L279.92 279.77L0.25 279.77L0.25 0.3Z"/>
			<path id="path1578" class="shp1" d="M49.2 49.22L231 49.22L231 230.89L49.2 230.89L49.2 49.22Z"/>
			<path id="path1580" class="shp1" d="M126.11 0.3L154.06 0.3L154.06 279.77L126.11 279.77L126.11 0.3Z"/>
			<path id="path1582" class="shp1" d="M0.25 126.1L279.92 126.1L279.92 154.04L0.25 154.04L0.25 126.1Z"/>
			<path id="path1584" class="shp0" d="M98.15 98.13L182.05 98.13L182.05 181.97L98.15 181.97L98.15 98.13Z"/>
		</g>
	</g>
</svg>
